<svg width="26" height="24" viewBox="0 0 26 24" fill="none" xmlns="http://www.w3.org/2000/svg">
<path d="M2.32438 0.86181C1.72736 1.0437 1.04944 1.60021 0.746159 2.13671C-0.0126297 3.50259 0.442448 5.12124 1.7883 5.87017C2.26386 6.13342 2.43573 6.17382 3.09366 6.17382C3.94346 6.17382 4.44962 5.97149 5.00556 5.40496C6.6547 3.75582 5.5926 0.933313 3.26557 0.801355C2.92136 0.780908 2.49619 0.811395 2.32438 0.86181Z" fill="white"/>
<path d="M7.89938 2.14645C8.06125 2.56116 8.07117 3.7451 7.91983 4.16972L7.76807 4.60489H16.1855C24.1378 4.60489 24.6133 4.59488 24.937 4.42303C25.3217 4.22069 25.6555 3.68417 25.6555 3.29007C25.6555 2.89531 25.3217 2.3593 24.937 2.15697C24.6133 1.98508 24.1378 1.97461 16.2159 1.97461C8.26367 1.97461 7.82855 1.98462 7.89938 2.14645Z" fill="white"/>
<path d="M12.2397 9.36019C11.2381 9.67343 10.4188 10.6751 10.3074 11.7072C10.1556 13.1845 11.2586 14.5403 12.7254 14.6917C14.2026 14.8436 15.5584 13.7405 15.7097 12.2737C15.8618 10.736 14.7182 9.39016 13.1805 9.29922C12.8367 9.27922 12.4116 9.30924 12.2397 9.36019Z" fill="white"/>
<path d="M0.979187 10.8576C0.594513 11.06 0.260742 11.5965 0.260742 11.9907C0.260742 12.3854 0.594513 12.9214 0.979187 13.1237C1.29297 13.2956 1.63663 13.3061 5.29956 13.3061H9.26575L9.19479 13.0228C9.09384 12.6786 9.09384 11.4342 9.18478 10.9995L9.26575 10.6758H5.28958C1.63663 10.6753 1.29297 10.6858 0.979187 10.8576Z" fill="white"/>
<path d="M16.7218 10.9486C16.8231 11.3028 16.8231 12.5472 16.7318 12.9719L16.661 13.3056H20.627C25.069 13.3056 25.0887 13.3056 25.4736 12.5872C25.7062 12.1521 25.7062 11.8283 25.4736 11.3932C25.0887 10.6748 25.069 10.6748 20.6169 10.6748H16.6509L16.7218 10.9486Z" fill="white"/>
<path d="M22.2559 17.8591C21.2544 18.1728 20.4351 19.1745 20.3235 20.2061C20.1718 21.6834 21.2748 23.0393 22.7416 23.1906C24.2188 23.3425 25.5748 22.2394 25.726 20.7727C25.878 19.235 24.7345 17.8891 23.1967 17.7982C22.8526 17.7782 22.4277 17.8087 22.2559 17.8591Z" fill="white"/>
<path d="M1.08026 19.4577C0.695496 19.6601 0.361816 20.1966 0.361816 20.5908C0.361816 20.9855 0.695496 21.5216 1.08026 21.7238C1.4039 21.8957 1.87955 21.9062 9.8013 21.9062C17.7537 21.9062 18.1888 21.8962 18.1179 21.7238C17.9559 21.3192 17.946 20.1351 18.0974 19.7005L18.2492 19.2754H9.83133C1.87955 19.2754 1.4039 19.2859 1.08026 19.4577Z" fill="white"/>
</svg>
