<svg xmlns="http://www.w3.org/2000/svg" width="33.481" height="33.569" viewBox="0 0 33.481 33.569">
  <g id="Group_215" data-name="Group 215" transform="translate(1 1.09)">
    <path id="Path_150" data-name="Path 150" d="M21.488,2V16.991a3.007,3.007,0,0,1-3,3H2V10.425a5.845,5.845,0,0,0,4.632,2.069,5.762,5.762,0,0,0,3.9-1.589A5.076,5.076,0,0,0,11.684,9.48a5.838,5.838,0,0,0,.81-3.118A5.971,5.971,0,0,0,10.455,2H21.488Z" transform="translate(-0.501 -0.503)" fill="none" stroke="#fff" stroke-linecap="round" stroke-linejoin="round" stroke-width="2"/>
    <path id="Path_151" data-name="Path 151" d="M31.982,18.492v4.5a4.491,4.491,0,0,1-4.5,4.5h-1.5a3,3,0,0,0-6,0h-6a3,3,0,0,0-6,0H6.5a4.491,4.491,0,0,1-4.5-4.5v-4.5H18.49a3.007,3.007,0,0,0,3-3V5h2.758a3.023,3.023,0,0,1,2.608,1.514L29.418,11H27.485a1.5,1.5,0,0,0-1.5,1.5v4.5a1.5,1.5,0,0,0,1.5,1.5Z" transform="translate(-0.501 0.994)" fill="none" stroke="#fff" stroke-linecap="round" stroke-linejoin="round" stroke-width="2"/>
    <path id="Path_152" data-name="Path 152" d="M9,24a3,3,0,1,0-3-3A3,3,0,0,0,9,24Z" transform="translate(1.495 7.482)" fill="none" stroke="#fff" stroke-linecap="round" stroke-linejoin="round" stroke-width="2"/>
    <path id="Path_153" data-name="Path 153" d="M17,24a3,3,0,1,0-3-3A3,3,0,0,0,17,24Z" transform="translate(5.488 7.482)" fill="none" stroke="#fff" stroke-linecap="round" stroke-linejoin="round" stroke-width="2"/>
    <path id="Path_154" data-name="Path 154" d="M24,13.5v3H19.5A1.5,1.5,0,0,1,18,15V10.5A1.5,1.5,0,0,1,19.5,9h1.934Z" transform="translate(7.485 2.991)" fill="none" stroke="#fff" stroke-linecap="round" stroke-linejoin="round" stroke-width="2"/>
    <path id="Path_155" data-name="Path 155" d="M12.993,7a5.995,5.995,0,1,1-3.4-5.4A5.972,5.972,0,0,1,12.993,7Z" transform="translate(-1 -1.001)" fill="none" stroke="#fff" stroke-linecap="round" stroke-linejoin="round" stroke-miterlimit="10" stroke-width="2"/>
    <path id="Path_156" data-name="Path 156" d="M5.874,3.75V6L4,7.123" transform="translate(0.497 0.37)" fill="none" stroke="#fff" stroke-linecap="round" stroke-linejoin="round" stroke-miterlimit="10" stroke-width="2"/>
  </g>
</svg>
