<svg xmlns="http://www.w3.org/2000/svg" width="43" height="42" viewBox="0 0 43 42" fill="none">
  <path d="M28.0497 2.90137V21.9435C28.0497 24.0382 26.3359 25.752 24.2413 25.752H3.29492V13.6031C4.685 15.2597 6.81772 16.288 9.17895 16.2309C11.1022 16.1928 12.835 15.4502 14.1299 14.2124C14.7202 13.7173 15.2153 13.0889 15.5962 12.4034C16.2817 11.2418 16.6625 9.8708 16.6244 8.44264C16.5673 6.21471 15.5771 4.25336 14.0347 2.90137L28.0497 2.90137Z" stroke="#232323" stroke-width="1.5" stroke-linecap="round" stroke-linejoin="round"/>
  <path d="M41.3792 25.7522V31.4649C41.3792 34.6259 38.8276 37.1775 35.6666 37.1775H33.7624C33.7624 35.0829 32.0486 33.3691 29.9539 33.3691C27.8593 33.3691 26.1455 35.0829 26.1455 37.1775H18.5287C18.5287 35.0829 16.8149 33.3691 14.7202 33.3691C12.6256 33.3691 10.9118 35.0829 10.9118 37.1775H9.00757C5.84657 37.1775 3.29492 34.6259 3.29492 31.4649V25.7522H24.2413C26.3359 25.7522 28.0497 24.0384 28.0497 21.9438V8.61426H31.5535C32.9245 8.61426 34.1813 9.3569 34.8668 10.5375L38.123 16.2311H35.6666C34.6193 16.2311 33.7624 17.088 33.7624 18.1353V23.848C33.7624 24.8953 34.6193 25.7522 35.6666 25.7522H41.3792Z" stroke="#232323" stroke-width="1.5" stroke-linecap="round" stroke-linejoin="round"/>
  <path d="M14.7201 40.986C16.8234 40.986 18.5285 39.2809 18.5285 37.1776C18.5285 35.0742 16.8234 33.3691 14.7201 33.3691C12.6167 33.3691 10.9116 35.0742 10.9116 37.1776C10.9116 39.2809 12.6167 40.986 14.7201 40.986Z" stroke="#232323" stroke-width="1.5" stroke-linecap="round" stroke-linejoin="round"/>
  <path d="M29.9539 40.986C32.0573 40.986 33.7624 39.2809 33.7624 37.1776C33.7624 35.0742 32.0573 33.3691 29.9539 33.3691C27.8506 33.3691 26.1455 35.0742 26.1455 37.1776C26.1455 39.2809 27.8506 40.986 29.9539 40.986Z" stroke="#232323" stroke-width="1.5" stroke-linecap="round" stroke-linejoin="round"/>
  <path d="M41.3791 21.9431V25.7516H35.6664C34.6191 25.7516 33.7622 24.8947 33.7622 23.8473V18.1347C33.7622 17.0874 34.6191 16.2305 35.6664 16.2305H38.1229L41.3791 21.9431Z" stroke="#232323" stroke-width="1.5" stroke-linecap="round" stroke-linejoin="round"/>
  <path d="M16.6244 8.61424C16.6244 10.8993 15.6151 12.9368 14.0346 14.3269C12.646 15.5515 10.8589 16.2284 9.00749 16.2311C4.79917 16.2311 1.39062 12.8226 1.39062 8.61424C1.39062 6.21493 2.49507 4.06316 4.24695 2.67309C6.53193 0.841683 9.66466 0.482787 12.3046 1.74997C14.9446 3.01715 16.6241 5.6859 16.6244 8.61424Z" stroke="#232323" stroke-width="1.5" stroke-linecap="round" stroke-linejoin="round"/>
  <path d="M9.48379 6.23438V9.0907L7.10352 10.5189" stroke="#232323" stroke-width="1.5" stroke-linecap="round" stroke-linejoin="round"/>
</svg>