<svg width="140" height="30" viewBox="0 0 140 30" fill="none" xmlns="http://www.w3.org/2000/svg">
<path d="M139.114 0.124828C136.838 4.05386 135.118 7.45929 133.872 10.0867C130.326 17.5592 130.001 20.0311 126.452 23.489C122.072 27.7573 117.885 28.6174 116.765 28.8159C114.742 29.176 112.993 29.1073 111.82 28.9882H15.7796C13.8891 28.5783 10.9493 27.7061 8.15395 25.7234C7.39761 25.1864 -0.582396 19.3292 1.55911 11.2032C3.04114 5.57957 8.76743 1.16194 15.9854 0.120117H26.4968H138.749L139.007 0.122136H139.114V0.124828Z" fill="#03ADEB"/>
<path d="M16.2304 0C14.5845 0.133806 10.5223 0.640649 6.70895 3.10593C5.3524 3.98311 1.39565 6.86873 0.448697 11.7608C-0.542758 16.8792 2.44562 20.7082 3.47745 22.0301C4.36342 23.1661 7.91386 27.7155 14.8475 28.9184C19.541 29.7327 23.3346 28.5886 24.6994 28.1602C29.6937 26.5923 32.4596 23.6594 33.7469 22.2578C38.0086 17.6165 44.7947 1.5827 46.1496 0H16.2304Z" fill="#EDF6F9"/>
<path d="M52.7293 16.8278H58.4443V18.7778H50.3143V8.27783H58.2493V10.2278H52.7293V12.5078H57.6043V14.3978H52.7293V16.8278ZM67.8953 18.7778H65.2403L63.4703 16.3028L61.6403 18.7778H59.0903L62.1953 14.7128L59.1953 10.7078H61.8203L63.5303 13.0628L65.2853 10.7078H67.7753L64.7753 14.6528L67.8953 18.7778ZM73.8012 10.5878C76.0662 10.5878 77.8212 12.2078 77.8212 14.7428C77.8212 17.2778 76.0662 18.8978 73.8012 18.8978C72.7962 18.8978 71.9712 18.5828 71.3712 17.9228V21.6878H69.0312V10.7078H71.2662V11.6378C71.8512 10.9328 72.7212 10.5878 73.8012 10.5878ZM73.3962 16.9778C74.5662 16.9778 75.4512 16.1378 75.4512 14.7428C75.4512 13.3478 74.5662 12.5078 73.3962 12.5078C72.2262 12.5078 71.3412 13.3478 71.3412 14.7428C71.3412 16.1378 72.2262 16.9778 73.3962 16.9778ZM81.6226 11.7728C82.1926 10.9928 83.1526 10.5878 84.3976 10.5878V12.7478C84.2026 12.7328 84.0526 12.7178 83.8726 12.7178C82.5826 12.7178 81.7276 13.4228 81.7276 14.9678V18.7778H79.3876V10.7078H81.6226V11.7728ZM93.6207 14.7728C93.6207 14.9528 93.5907 15.2078 93.5757 15.4028H87.4707C87.6957 16.4078 88.5507 17.0228 89.7807 17.0228C90.6357 17.0228 91.2507 16.7678 91.8057 16.2428L93.0507 17.5928C92.3007 18.4478 91.1757 18.8978 89.7207 18.8978C86.9307 18.8978 85.1157 17.1428 85.1157 14.7428C85.1157 12.3278 86.9607 10.5878 89.4207 10.5878C91.7907 10.5878 93.6207 12.1778 93.6207 14.7728ZM89.4357 12.3578C88.3707 12.3578 87.6057 13.0028 87.4407 14.0378H91.4157C91.2507 13.0178 90.4857 12.3578 89.4357 12.3578ZM97.8936 18.8978C96.5286 18.8978 95.1486 18.5228 94.3986 18.0278L95.1786 16.3478C95.8986 16.8128 96.9936 17.1278 97.9836 17.1278C99.0636 17.1278 99.4686 16.8428 99.4686 16.3928C99.4686 15.0728 94.5936 16.4228 94.5936 13.1978C94.5936 11.6678 95.9736 10.5878 98.3286 10.5878C99.4386 10.5878 100.669 10.8428 101.434 11.2928L100.654 12.9578C99.8586 12.5078 99.0636 12.3578 98.3286 12.3578C97.2786 12.3578 96.8286 12.6878 96.8286 13.1078C96.8286 14.4878 101.704 13.1528 101.704 16.3328C101.704 17.8328 100.309 18.8978 97.8936 18.8978ZM105.862 18.8978C104.497 18.8978 103.117 18.5228 102.367 18.0278L103.147 16.3478C103.867 16.8128 104.962 17.1278 105.952 17.1278C107.032 17.1278 107.437 16.8428 107.437 16.3928C107.437 15.0728 102.562 16.4228 102.562 13.1978C102.562 11.6678 103.942 10.5878 106.297 10.5878C107.407 10.5878 108.637 10.8428 109.402 11.2928L108.622 12.9578C107.827 12.5078 107.032 12.3578 106.297 12.3578C105.247 12.3578 104.797 12.6878 104.797 13.1078C104.797 14.4878 109.672 13.1528 109.672 16.3328C109.672 17.8328 108.277 18.8978 105.862 18.8978Z" fill="white"/>
<path d="M16.9357 22.2083C16.6552 22.2062 16.4033 22.0365 16.2959 21.7774C16.1885 21.5183 16.2465 21.2201 16.4432 21.0202L17.4894 19.9823C17.7606 19.7102 18.2011 19.7096 18.4731 19.9809C18.7451 20.2522 18.7458 20.6926 18.4745 20.9646L17.4282 22.0108C17.2966 22.1391 17.1195 22.2102 16.9357 22.2083Z" fill="#03ADEB"/>
<path d="M12.6647 17.9365C12.3829 17.937 12.1287 17.7675 12.0208 17.5072C11.9129 17.247 11.9727 16.9473 12.1722 16.7484L13.2212 15.7021C13.4989 15.4806 13.8989 15.5039 14.149 15.7562C14.3991 16.0084 14.4189 16.4086 14.195 16.6844L13.1572 17.7334C13.0259 17.863 12.8491 17.9359 12.6647 17.9365Z" fill="#03ADEB"/>
<path d="M13.4659 21.4064C13.2815 21.4058 13.1046 21.3329 12.9734 21.2033C12.8426 21.0727 12.769 20.8955 12.769 20.7107C12.769 20.526 12.8426 20.3487 12.9734 20.2182L15.3552 17.8364C15.6272 17.5651 16.0676 17.5657 16.3389 17.8377C16.6102 18.1098 16.6096 18.5502 16.3375 18.8215L13.9584 21.2033C13.8272 21.3329 13.6504 21.4058 13.4659 21.4064Z" fill="#03ADEB"/>
<path d="M22.7152 22.0685C22.6559 22.0684 22.5969 22.0599 22.5399 22.0434C22.3005 21.9815 22.1119 21.7972 22.0446 21.5593L21.0262 17.8808C20.924 17.5104 21.1414 17.1274 21.5118 17.0252C21.8821 16.923 22.2652 17.1404 22.3674 17.5107L23.0686 20.0372L24.6518 18.454L24.0953 15.5797C24.0185 15.2032 24.2614 14.8357 24.6379 14.7588C25.0144 14.682 25.3819 14.9249 25.4587 15.3014L26.0987 18.5375C26.1443 18.7655 26.0734 19.0013 25.9095 19.1663L23.2188 21.8542C23.0879 21.9923 22.9055 22.0699 22.7152 22.0685Z" fill="#03ADEB"/>
<path d="M19.8827 19.0748C19.6977 19.0744 19.5204 19.0003 19.3902 18.8689L15.3082 14.7842C15.1301 14.6093 15.0609 14.3515 15.1274 14.1108C16.6299 8.60148 22.2645 4.9564 27.6598 5.96088C27.9429 6.0128 28.1644 6.23431 28.2163 6.51738C29.2208 11.9127 25.5729 17.5445 20.0663 19.0498C20.0065 19.0663 19.9447 19.0747 19.8827 19.0748ZM16.5798 14.0942L20.083 17.5945C24.535 16.1783 27.4956 11.6845 26.9252 7.25197C22.4871 6.68155 17.9961 9.64492 16.5798 14.0942Z" fill="#03ADEB"/>
<path d="M16.4796 13.1758C16.4166 13.1757 16.3539 13.1673 16.2931 13.1508L12.6174 12.1296C12.3786 12.0636 12.1929 11.8757 12.1299 11.6361C12.0668 11.3965 12.1359 11.1414 12.3114 10.9665L15.002 8.27858C15.1657 8.11422 15.4005 8.04222 15.6281 8.08659L18.8642 8.72657C19.2414 8.80341 19.485 9.17153 19.4081 9.5488C19.3313 9.92607 18.9632 10.1696 18.5859 10.0928L15.7144 9.53628L14.1395 11.1084L16.666 11.8096C17.0018 11.9022 17.2174 12.229 17.1703 12.5742C17.1232 12.9194 16.828 13.1765 16.4796 13.1758Z" fill="#03ADEB"/>
<path d="M22.6844 13.6596C22.109 13.6624 21.5566 13.4338 21.1513 13.0252C20.528 12.4055 20.3401 11.471 20.6753 10.6585C21.0106 9.84602 21.8027 9.31592 22.6816 9.31592C23.5606 9.31592 24.3527 9.84602 24.688 10.6585C25.0232 11.471 24.8353 12.4055 24.212 13.0252C23.8076 13.4316 23.2578 13.6599 22.6844 13.6596ZM22.6844 10.713C22.3682 10.709 22.0812 10.8974 21.9589 11.189C21.8366 11.4807 21.9035 11.8174 22.1279 12.0402C22.4378 12.3413 22.931 12.3413 23.2409 12.0402C23.4654 11.8174 23.5323 11.4807 23.41 11.189C23.2877 10.8974 23.0007 10.709 22.6844 10.713Z" fill="#03ADEB"/>
</svg>
