<svg width="58" height="58" viewBox="0 0 58 58" fill="none" xmlns="http://www.w3.org/2000/svg">
<g id="Group 4585">
<g id="Group 629">
<path id="Rectangle 291" d="M0.000488281 29C0.000488281 12.9837 12.9842 0 29.0005 0C45.0167 0 58.0005 12.9837 58.0005 29C58.0005 45.0163 45.0167 58 29.0005 58C12.9842 58 0.000488281 45.0163 0.000488281 29Z" fill="#03ADEB"/>
<g id="configure">
<g id="Group 4311">
<path id="Path 7154" d="M18.3244 17.8618C17.7274 18.0437 17.0494 18.6002 16.7462 19.1367C15.9874 20.5026 16.4424 22.1212 17.7883 22.8702C18.2639 23.1334 18.4357 23.1738 19.0937 23.1738C19.9435 23.1738 20.4496 22.9715 21.0056 22.405C22.6547 20.7558 21.5926 17.9333 19.2656 17.8014C18.9214 17.7809 18.4962 17.8114 18.3244 17.8618Z" fill="white"/>
<path id="Path 7155" d="M23.8994 19.1465C24.0612 19.5612 24.0712 20.7451 23.9198 21.1697L23.7681 21.6049H32.1855C40.1378 21.6049 40.6133 21.5949 40.937 21.423C41.3217 21.2207 41.6555 20.6842 41.6555 20.2901C41.6555 19.8953 41.3217 19.3593 40.937 19.157C40.6133 18.9851 40.1378 18.9746 32.2159 18.9746C24.2637 18.9746 23.8286 18.9846 23.8994 19.1465Z" fill="white"/>
<path id="Path 7156" d="M28.2397 26.3602C27.2381 26.6734 26.4188 27.6751 26.3074 28.7072C26.1556 30.1845 27.2586 31.5403 28.7254 31.6917C30.2026 31.8436 31.5584 30.7405 31.7097 29.2737C31.8618 27.736 30.7182 26.3902 29.1805 26.2992C28.8367 26.2792 28.4116 26.3092 28.2397 26.3602Z" fill="white"/>
<path id="Path 7157" d="M16.9792 27.8576C16.5945 28.06 16.2607 28.5965 16.2607 28.9907C16.2607 29.3854 16.5945 29.9214 16.9792 30.1237C17.293 30.2956 17.6366 30.3061 21.2996 30.3061H25.2657L25.1948 30.0228C25.0938 29.6786 25.0938 28.4342 25.1848 27.9995L25.2657 27.6758H21.2896C17.6366 27.6753 17.293 27.6858 16.9792 27.8576Z" fill="white"/>
<path id="Path 7158" d="M32.7218 27.9486C32.8231 28.3028 32.8231 29.5472 32.7318 29.9719L32.661 30.3056H36.627C41.069 30.3056 41.0887 30.3056 41.4736 29.5872C41.7062 29.1521 41.7062 28.8283 41.4736 28.3932C41.0887 27.6748 41.069 27.6748 36.6169 27.6748H32.6509L32.7218 27.9486Z" fill="white"/>
<path id="Path 7159" d="M38.2559 34.8591C37.2544 35.1728 36.4351 36.1745 36.3235 37.2061C36.1718 38.6834 37.2748 40.0393 38.7416 40.1906C40.2188 40.3425 41.5748 39.2394 41.726 37.7727C41.878 36.235 40.7345 34.8891 39.1967 34.7982C38.8526 34.7782 38.4277 34.8087 38.2559 34.8591Z" fill="white"/>
<path id="Path 7160" d="M17.0803 36.4577C16.6955 36.6601 16.3618 37.1966 16.3618 37.5908C16.3618 37.9855 16.6955 38.5216 17.0803 38.7238C17.4039 38.8957 17.8795 38.9062 25.8013 38.9062C33.7537 38.9062 34.1888 38.8962 34.1179 38.7238C33.9559 38.3192 33.946 37.1351 34.0974 36.7005L34.2492 36.2754H25.8313C17.8795 36.2754 17.4039 36.2859 17.0803 36.4577Z" fill="white"/>
</g>
</g>
</g>
</g>
</svg>
