<svg width="181" height="181" viewBox="0 0 181 181" fill="none" xmlns="http://www.w3.org/2000/svg">
<ellipse cx="90.407" cy="90.4078" rx="90.4078" ry="90.4078" fill="#EDF5FB"/>
<ellipse opacity="0.15" cx="90.4071" cy="90.4078" rx="71.7027" ry="71.7027" fill="#2AA6DF"/>
<ellipse cx="89.3679" cy="89.3684" rx="49.8801" ry="49.8802" fill="#2AA6DF"/>
<path d="M83.2423 107.934C82.5345 107.933 81.8559 107.651 81.3556 107.149L64.0017 89.7609C63.0215 88.7074 63.0504 87.0657 64.0671 86.0475C65.0839 85.0293 66.7231 85.0003 67.7751 85.982L83.2423 101.472L112.059 72.6219C113.111 71.6402 114.75 71.6692 115.767 72.6874C116.783 73.7057 116.812 75.3474 115.832 76.4009L85.129 107.149C84.6288 107.651 83.9502 107.933 83.2423 107.934Z" fill="#F6F9F6"/>
</svg>
