<svg width="28" height="15" viewBox="0 0 28 15" fill="none" xmlns="http://www.w3.org/2000/svg">
<path d="M0.5 1.72266C0.5 1.17037 0.947715 0.722656 1.5 0.722656H26.5C27.0523 0.722656 27.5 1.17037 27.5 1.72266C27.5 2.27494 27.0523 2.72266 26.5 2.72266H1.5C0.947715 2.72266 0.5 2.27494 0.5 1.72266Z" fill="#003B82" stroke="#003B82"/>
<path d="M0.5 7.72266C0.5 7.17037 0.947715 6.72266 1.5 6.72266H16.5C17.0523 6.72266 17.5 7.17037 17.5 7.72266C17.5 8.27494 17.0523 8.72266 16.5 8.72266H1.5C0.947715 8.72266 0.5 8.27494 0.5 7.72266Z" fill="#003B82" stroke="#003B82"/>
<path d="M0.5 12.7227C0.5 12.1704 0.947715 11.7227 1.5 11.7227H4.5C5.05228 11.7227 5.5 12.1704 5.5 12.7227C5.5 13.2749 5.05228 13.7227 4.5 13.7227H1.5C0.947715 13.7227 0.5 13.2749 0.5 12.7227Z" fill="#003B82" stroke="#003B82"/>
</svg>
